<svg id="visual" viewBox="0 0 900 600" width="900" height="600" xmlns="http://www.w3.org/2000/svg" xmlns:xlink="http://www.w3.org/1999/xlink" version="1.1"><rect x="0" y="0" width="900" height="600" fill="#ffd1a1"></rect><path d="M0 508L129 493L257 476L386 457L514 504L643 451L771 459L900 511L900 601L771 601L643 601L514 601L386 601L257 601L129 601L0 601Z" fill="#cfb197"></path><path d="M0 524L129 505L257 518L386 525L514 499L643 512L771 483L900 474L900 601L771 601L643 601L514 601L386 601L257 601L129 601L0 601Z" fill="#bd9676"></path><path d="M0 541L129 494L257 519L386 529L514 507L643 508L771 492L900 529L900 601L771 601L643 601L514 601L386 601L257 601L129 601L0 601Z" fill="#ab7a58"></path><path d="M0 521L129 541L257 545L386 540L514 532L643 512L771 533L900 512L900 601L771 601L643 601L514 601L386 601L257 601L129 601L0 601Z" fill="#99603b"></path><path d="M0 559L129 558L257 551L386 573L514 550L643 545L771 538L900 573L900 601L771 601L643 601L514 601L386 601L257 601L129 601L0 601Z" fill="#86461f"></path><path d="M0 562L129 570L257 562L386 566L514 574L643 570L771 574L900 572L900 601L771 601L643 601L514 601L386 601L257 601L129 601L0 601Z" fill="#722b03"></path></svg>